<?xml version='1.0' encoding='iso-8859-1'?>
<!DOCTYPE svg PUBLIC '-//W3C//DTD SVG 1.1//EN' 'http://www.w3.org/Graphics/SVG/1.1/DTD/svg11.dtd'>
<svg version="1.1" xmlns="http://www.w3.org/2000/svg" viewBox="0 0 309.983 309.983" xmlns:xlink="http://www.w3.org/1999/xlink" enable-background="new 0 0 309.983 309.983">
  <g>
    <path d="m292.483,161.398h-19.333v-11.5c0-6.996-5.671-12.667-12.667-12.667h-169.333c-6.996,0-12.667,5.671-12.667,12.667v11.5h-19.333c-9.665,0-17.5,7.835-17.5,17.5 0,9.665 7.835,17.5 17.5,17.5h19.333v1.01c0,53.117 43.578,96.177 97.333,96.177s97.333-43.06 97.333-96.177v-1.01h19.333c9.665,0 17.5-7.835 17.5-17.5 0.001-9.665-7.834-17.5-17.499-17.5z"/>
    <path d="m114.783,63.561c-1.362,6.862 3.097,13.528 9.958,14.89l166.093,32.967c6.862,1.362 13.528-3.097 14.89-9.958l1.233-6.212c2.907-14.646-31.162-33.967-77.929-45.079 2.525-2.168 4.378-5.156 5.076-8.674 1.657-8.347-3.767-16.457-12.114-18.114-8.347-1.657-16.458,3.767-18.114,12.115-0.698,3.517-0.127,6.986 1.378,9.954-47.466-7.592-86.331-2.747-89.238,11.899l-1.233,6.212z"/>
    <path d="m46.492,119.966c5.913-5.16 13.311-8.303 21.159-8.303h40.233c2.67,0 4.996-1.985 5.314-4.771 0.212-1.857-0.644-3.68-2.106-4.844l-23.873-19.01c-6.031-4.803-8.842-12.797-6.598-20.173 0.454-1.493 0.698-3.076 0.698-4.719 0-8.272-6.183-15.091-14.179-16.109-0.988-0.126-1.704-0.964-1.661-1.959 0.013-0.308 0.02-0.618 0.02-0.93 0-12.465-10.025-22.589-22.453-22.748-10.756-0.138-20.224,7.556-22.536,18.062-0.016,0.073-0.032,0.146-0.047,0.219-1.029,4.913-3.838,9.232-7.999,12.04-7.519,5.075-12.464,13.67-12.464,23.424 0,8.979 4.19,16.977 10.722,22.149 5.258,4.163 8.821,10.146 9.325,16.834 0.017,0.222 0.038,0.445 0.064,0.669 0.85,7.331 6.809,13.233 14.148,14.009 4.694,0.496 9.027-1.042 12.233-3.84z"/>
  </g>
</svg>
