<?xml version="1.0" encoding="utf-8"?>
<!-- Generator: Adobe Illustrator 24.0.0, SVG Export Plug-In . SVG Version: 6.00 Build 0)  -->
<svg version="1.1" id="Layer_1" xmlns="http://www.w3.org/2000/svg" xmlns:xlink="http://www.w3.org/1999/xlink" x="0px" y="0px"
	 viewBox="0 0 512 512" style="enable-background:new 0 0 512 512;" xml:space="preserve">
<path d="M488,464h-8v-8c-0.1-106.9-78.3-197.6-184-213.6V232c0-13.3-10.7-24-24-24h-32c-13.3,0-24,10.7-24,24v10.4
	C110.3,258.4,32.1,349.1,32,456v8h-8c-8.8,0-16,7.2-16,16v8c0,8.8,7.2,16,16,16h464c8.8,0,16-7.2,16-16v-8
	C504,471.2,496.8,464,488,464z M232,240v-8c0-4.4,3.6-8,8-8h32c4.4,0,8,3.6,8,8v8H232z M48,456c0.1-110.4,89.6-199.9,200-200h16
	c110.4,0.1,199.9,89.6,200,200v8H48V456z M24,488v-8h464v8H24z"/>
<path d="M297.4,266.9c-4.4-0.8-8.5,2.1-9.3,6.5s2.1,8.5,6.5,9.3c57.5,10.2,106.3,48.2,130.1,101.6c1.7,4.1,6.4,6,10.4,4.4
	c4.1-1.7,6-6.4,4.4-10.4c-0.1-0.2-0.1-0.3-0.2-0.5C413.3,319.5,360.2,278,297.4,266.9L297.4,266.9z"/>
<path d="M184,432H72c-4.4,0-8,3.6-8,8s3.6,8,8,8h112c4.4,0,8-3.6,8-8S188.4,432,184,432z"/>
<path d="M216,432h-8c-4.4,0-8,3.6-8,8s3.6,8,8,8h8c4.4,0,8-3.6,8-8S220.4,432,216,432z"/>
</svg>
